<?xml version="1.0" standalone="no"?>
<!DOCTYPE svg PUBLIC "-//W3C//DTD SVG 20010904//EN"
 "http://www.w3.org/TR/2001/REC-SVG-20010904/DTD/svg10.dtd">
<svg version="1.0" xmlns="http://www.w3.org/2000/svg"
 width="1014.000000pt" height="1014.000000pt" viewBox="0 0 1014.000000 1014.000000"
 preserveAspectRatio="xMidYMid meet">
<metadata>
Created by potrace 1.11, written by Peter Selinger 2001-2013
</metadata>
<g transform="translate(0.000000,1014.000000) scale(0.100000,-0.100000)"
fill="#000000" stroke="none">
<path d="M9779 10117 c-47 -24 -18 16 -894 -1217 -165 -232 -304 -428 -310
-434 -5 -7 -14 -19 -20 -28 -5 -9 -39 -57 -75 -107 -162 -227 -651 -912 -909
-1276 -156 -220 -312 -438 -346 -485 -34 -47 -82 -114 -107 -150 -51 -74 -572
-805 -616 -865 -37 -50 -1157 -1625 -1306 -1837 -61 -86 -113 -157 -116 -157
-4 0 -402 552 -640 888 -19 27 -119 166 -221 308 -383 532 -657 914 -799 1113
-81 113 -252 351 -380 530 -129 179 -245 341 -259 361 -14 20 -87 121 -162
225 -74 104 -172 241 -218 304 -45 63 -88 122 -94 130 -7 8 -33 44 -57 80 -25
36 -47 67 -50 70 -3 3 -17 21 -30 40 -13 19 -126 177 -250 350 -125 173 -386
538 -582 810 -195 272 -437 610 -538 750 -101 140 -226 315 -278 388 -51 73
-110 145 -130 160 -31 24 -44 27 -108 26 -60 0 -79 -5 -109 -25 -50 -34 -85
-109 -81 -174 4 -67 7 -73 100 -203 45 -63 88 -124 96 -135 19 -28 200 -279
238 -332 16 -22 196 -272 399 -555 203 -283 389 -543 413 -577 25 -33 51 -69
58 -80 7 -10 71 -99 143 -198 71 -99 138 -191 147 -205 13 -20 130 -182 276
-385 8 -11 184 -256 391 -545 206 -289 386 -538 398 -555 13 -16 138 -190 277
-385 250 -349 686 -956 714 -995 8 -11 104 -144 212 -295 305 -425 685 -954
844 -1175 79 -110 155 -216 169 -237 14 -20 94 -129 176 -244 83 -114 164
-226 180 -250 38 -53 273 -381 480 -669 209 -291 340 -473 395 -551 25 -34 95
-131 155 -215 61 -84 124 -171 140 -195 17 -23 114 -159 216 -301 102 -142
234 -327 295 -410 120 -168 151 -194 235 -192 61 1 104 18 146 59 38 38 51 64
59 120 8 59 -43 147 -336 571 -74 108 -139 203 -145 212 -41 64 -265 372 -434
597 -241 319 -458 610 -615 826 -88 121 -226 309 -306 419 -81 110 -179 247
-218 304 l-71 103 37 52 c54 75 111 156 1583 2216 737 1031 1353 1893 1368
1915 15 22 317 445 671 940 354 495 653 915 664 932 12 18 26 34 31 37 7 2 10
-1522 10 -4563 -1 -2610 3 -4581 8 -4601 22 -86 89 -140 175 -140 63 0 136 46
166 105 l21 40 2 4860 c1 2673 4 4887 6 4920 6 78 -17 121 -86 163 -71 43
-138 49 -198 19z"/>
<path d="M179 8027 c-20 -10 -48 -35 -61 -55 -56 -84 -52 185 -53 -3907 0
-2085 3 -3809 7 -3833 4 -23 19 -58 34 -77 30 -40 115 -85 159 -85 80 0 162
48 191 113 18 40 19 137 19 3529 0 1918 3 3488 6 3488 4 0 47 -56 95 -126 49
-69 103 -144 120 -167 17 -23 132 -184 254 -357 123 -173 235 -331 249 -350
51 -69 1136 -1590 1206 -1690 57 -82 352 -497 389 -547 17 -24 45 -62 62 -85
43 -59 969 -1360 1002 -1408 15 -21 70 -98 123 -172 52 -73 275 -385 494 -693
1091 -1530 1104 -1549 1143 -1572 102 -62 260 6 292 125 10 39 9 47 -18 100
-48 93 -212 348 -440 682 -104 152 -542 779 -559 800 -10 12 -129 181 -235
333 -7 11 -29 41 -48 67 -48 67 -155 218 -214 304 -52 73 -176 248 -198 278
-7 9 -51 71 -98 138 -205 291 -1229 1720 -1527 2132 -43 59 -85 116 -93 128
-8 12 -83 114 -165 228 -268 368 -408 561 -617 853 -113 158 -231 322 -263
365 -31 44 -138 192 -237 329 -99 138 -250 346 -336 463 -87 117 -179 244
-207 282 -27 37 -99 135 -158 218 -90 125 -115 154 -152 172 -52 25 -112 24
-166 -3z"/>
</g>
</svg>
